<svg xmlns="http://www.w3.org/2000/svg" xmlns:xlink="http://www.w3.org/1999/xlink" id="Layer_2" data-name="Layer 2" viewBox="0 0 682.85 653.33" width="682.85" height="653.33"><defs>
    <style>
      .cls-1 {
        fill: #d8a15f;
      }

      .cls-1, .cls-2, .cls-3, .cls-4, .cls-5, .cls-6, .cls-7, .cls-8, .cls-9, .cls-10, .cls-11 {
        stroke-width: 0px;
      }

      .cls-2 {
        fill: url(#linear-gradient);
      }

      .cls-3 {
        fill: #d28534;
      }

      .cls-4 {
        fill: none;
      }

      .cls-5 {
        fill: #c48554;
      }

      .cls-6 {
        fill: url(#linear-gradient-2);
      }

      .cls-7 {
        fill: #ba6b38;
      }

      .cls-8 {
        fill: #c97e43;
      }

      .cls-9 {
        fill: #e5a94d;
      }

      .cls-10 {
        fill: #e19c41;
      }

      .cls-11 {
        fill: #bd7e4b;
      }
    </style>
    <linearGradient id="linear-gradient" x1="12.8" y1="131.66" x2="668.42" y2="131.66" gradientUnits="userSpaceOnUse">
      <stop offset="0" stop-color="#df9d42"></stop>
      <stop offset=".99" stop-color="#b46a36"></stop>
    </linearGradient>
    <linearGradient id="linear-gradient-2" x1="6.52" y1="485.94" x2="674.96" y2="485.94" xlink:href="#linear-gradient"></linearGradient>
  </defs><g id="Layer_2-2" data-name="Layer 2">
    <g>
      <path class="cls-10" d="m163.56,570.85c-26.85-18.68-50.51-41.49-69.99-67.46V218.96l69.46-41.63.53,393.52Z"></path>
      <path class="cls-3" d="m252.56,613.58c-24.8-7.31-48.28-17.63-70-30.51V165.82l69.78-43.26.22,491.02Z"></path>
      <path class="cls-1" d="m330.91,75.78l-.05,550.37c-20.56-.66-40.61-3.31-59.95-7.76V111.78l60-36Z"></path>
      <path class="cls-8" d="m410,111.89v506.8c-19.32,4.36-39.33,6.92-59.84,7.5l-.16-550.41,60,36.11Z"></path>
      <path class="cls-7" d="m498.97,164.78l-.08,418.74c-21.71,12.79-45.16,23.02-69.92,30.26V122.82l70,41.96Z"></path>
      <path class="cls-11" d="m587.51,504.88c-19.16,25.22-42.27,47.41-68.43,65.68V176.72l67.74,41.95.69,286.21Z"></path>
    </g>
    <path class="cls-4" d="m631.82,206.56c-15.9-36.75-38.67-69.75-67.67-98.09-29-28.35-62.78-50.61-100.41-66.17-38.96-16.1-80.34-24.27-122.99-24.27s-84.04,8.17-123,24.27c-37.62,15.56-71.4,37.82-100.41,66.17-29,28.34-51.76,61.34-67.67,98.09-16.46,38.05-24.81,78.46-24.81,120.11s8.35,82.05,24.81,120.1c15.9,36.75,38.67,69.76,67.67,98.1,29.01,28.35,62.79,50.61,100.41,66.16,38.96,16.11,80.34,24.28,123,24.28s84.03-8.17,122.99-24.28c37.62-15.55,71.4-37.81,100.41-66.16,29-28.34,51.77-61.35,67.67-98.1,16.47-38.05,24.81-78.46,24.81-120.1s-8.34-82.06-24.81-120.11Zm-44.28,311.2l-68.46,62.35v-9.55c-6.54,4.58-13.28,8.9-20.19,12.96v6.26l-69.92,28.44v-4.44c-6.24,1.84-12.57,3.47-18.97,4.91v4.2l-59.84,6.89v-3.59c-3.01.09-6.02.13-9.05.13-3.43,0-6.85-.06-10.25-.17v3.63l-59.95-7.22v-4.17c-6.19-1.41-12.31-3.02-18.35-4.81v5.53l-70-30.22v-5.82c-6.5-3.84-12.83-7.92-19-12.22v9.39s-69.99-64.68-69.99-64.68v-12.17c-37.26-49.66-59.29-110.9-59.29-177.07C34.28,160.89,171.92,26.32,341.11,26.32s306.82,134.57,306.82,300c0,66.84-22.47,128.64-60.42,178.56l.03,12.88Z"></path>
    <polygon class="cls-5" points="607.74 230.67 607.74 313.56 682.85 313.56 682.85 276.67 607.74 230.67"></polygon>
    <g>
      <path class="cls-2" d="m36.33,249.12C71.36,116.56,194.54,18.64,341.12,18.64s269.03,97.36,304.47,229.35l22.83,13.98c-4.39-21.35-10.97-42.22-19.73-62.46-16.83-38.9-40.93-73.83-71.62-103.83-30.69-29.99-66.43-53.55-106.23-70C429.62,8.64,385.85,0,340.74,0s-88.88,8.64-130.1,25.68c-39.8,16.45-75.54,40-106.23,70-30.69,29.99-54.78,64.93-71.62,103.83-8.94,20.67-15.61,42-20,63.82l23.53-14.2Z"></path>
      <path class="cls-6" d="m655.79,318.56c.07,2.57.1,5.16.1,7.74,0,169.92-140.93,307.66-314.78,307.66S26.34,496.22,26.34,326.3c0-2.52.04-5.02.1-7.52H6.62c-.06,2.62-.1,5.25-.1,7.89,0,44.09,8.84,86.87,26.27,127.16,16.83,38.9,40.93,73.84,71.62,103.83,30.69,29.99,66.43,53.55,106.23,70,41.22,17.04,84.99,25.68,130.1,25.68s88.88-8.64,130.1-25.68c39.8-16.45,75.54-40.01,106.23-70,30.69-29.99,54.78-64.93,71.62-103.83,17.43-40.29,26.27-83.07,26.27-127.16,0-2.71-.04-5.41-.1-8.11h-19.07Z"></path>
    </g>
    <polygon class="cls-9" points="0 313.78 73.63 313.78 73.63 232.44 0 276.89 0 313.78"></polygon>
  </g></svg>